<svg width="120" height="40" viewBox="0 0 120 40" fill="none" xmlns="http://www.w3.org/2000/svg">
<path d="M22.7009 23.636C24.9368 23.636 26.7494 21.8958 26.7494 19.7492C26.7494 17.6025 24.9368 15.8623 22.7009 15.8623C20.4649 15.8623 18.6523 17.6025 18.6523 19.7492C18.6523 21.8958 20.4649 23.636 22.7009 23.636Z" fill="#00D8FF"/>
<path fill-rule="evenodd" clip-rule="evenodd" d="M22.7013 11.8467C28.137 11.8467 33.1866 12.5955 36.994 13.8539C41.5813 15.3702 44.4018 17.6684 44.4018 19.7495C44.4018 21.9181 41.4127 24.3596 36.4864 25.9266C32.7621 27.1113 27.8611 27.7297 22.7013 27.7297C17.411 27.7297 12.4014 27.1492 8.63511 25.9136C3.87005 24.35 1 21.8768 1 19.7495C1 17.6853 3.69299 15.4048 8.21587 13.8909C12.0375 12.6117 17.2118 11.8467 22.7005 11.8467H22.7013Z" stroke="#00D8FF" stroke-width="1.66272"/>
<path fill-rule="evenodd" clip-rule="evenodd" d="M15.5358 15.8205C18.2514 11.2999 21.4495 7.47426 24.4871 4.9364C28.1469 1.87866 31.6297 0.681157 33.5074 1.72068C35.4642 2.80405 36.1739 6.5099 35.1268 11.3896C34.3359 15.079 32.4448 19.4638 29.867 23.7551C27.2241 28.1549 24.1978 32.0313 21.2016 34.5456C17.4103 37.7275 13.7449 38.8789 11.8254 37.8162C9.96281 36.7857 9.25054 33.4061 10.1441 28.8882C10.899 25.0708 12.7936 20.3854 15.5349 15.8205H15.5358Z" stroke="#00D8FF" stroke-width="1.66272"/>
<path fill-rule="evenodd" clip-rule="evenodd" d="M15.5429 23.7675C12.8197 19.2519 10.9656 14.6803 10.1917 10.8864C9.26005 6.31514 9.91873 2.8201 11.7947 1.77756C13.7496 0.691001 17.4482 1.95142 21.3287 5.25942C24.2627 7.76042 27.2754 11.5225 29.8606 15.8099C32.5112 20.2054 34.4977 24.6586 35.2705 28.4064C36.2484 33.1491 35.4569 36.7728 33.5392 37.8386C31.6785 38.8728 28.2735 37.7778 24.6428 34.7782C21.5751 32.2439 18.2931 28.3279 15.5429 23.7674V23.7675Z" stroke="#00D8FF" stroke-width="1.66272"/>
<path fill-rule="evenodd" clip-rule="evenodd" d="M67.6407 29.6798L62.6784 22.4822C65.1863 22.2697 67.4461 20.5251 67.4461 17.3378C67.4461 14.0947 65.0489 12.019 61.6859 12.019H54.3008V29.6664H56.5886V22.6544H60.2543L64.9394 29.6664L67.6407 29.6798ZM61.4122 20.7365H56.5897V13.9895H61.4122C63.5905 13.9895 65.078 15.3651 65.078 17.3501C65.078 19.3352 63.5893 20.7387 61.4122 20.7387V20.7365ZM76.1569 29.9963C78.3352 29.9963 80.1255 29.3085 81.4488 28.0392L80.4564 26.7419C79.408 27.7741 77.8657 28.3557 76.3503 28.3557C73.4847 28.3557 71.72 26.3449 71.5546 23.9383H82.3294V23.435C82.3294 19.5991 79.959 16.5819 75.9344 16.5819C72.1312 16.5819 69.3763 19.5723 69.3763 23.2762C69.3763 27.272 72.215 29.9862 76.1557 29.9862L76.1569 29.9963ZM80.2921 22.4811H71.5557C71.6664 20.524 73.07 18.2202 75.9099 18.2202C78.942 18.2202 80.2642 20.5754 80.2921 22.4811ZM96.0572 29.6787V20.8941C96.0572 17.7986 93.7159 16.5807 90.9039 16.5807C88.7256 16.5807 87.018 17.2685 85.5852 18.6977L86.5497 20.0733C87.7343 18.8565 89.0308 18.3007 90.629 18.3007C92.558 18.3007 93.9919 19.2793 93.9919 20.9993V23.3008C92.9168 22.1098 91.4013 21.554 89.5818 21.554C87.322 21.554 84.9224 22.9038 84.9224 25.7611C84.9224 28.5391 87.3197 29.9952 89.5818 29.9952C91.3733 29.9952 92.89 29.3868 93.9919 28.2226V29.6764L96.0572 29.6787ZM90.3261 28.567C88.3971 28.567 87.0459 27.404 87.0459 25.7891C87.0459 24.1485 88.3971 22.9843 90.3261 22.9843C91.7869 22.9843 93.1917 23.5133 93.9919 24.5724V26.9801C93.1928 28.0381 91.7869 28.5682 90.3261 28.5682V28.567ZM106.051 29.9963C108.476 29.9963 109.909 29.0435 110.93 27.7741L109.551 26.5574C108.67 27.6947 107.54 28.2237 106.173 28.2237C103.335 28.2237 101.572 26.1067 101.572 23.2762C101.572 20.4457 103.336 18.3555 106.173 18.3555C107.551 18.3555 108.681 18.8588 109.551 20.0218L110.93 18.8051C109.91 17.5347 108.476 16.583 106.051 16.583C102.082 16.583 99.4096 19.494 99.4096 23.2773C99.4096 27.0875 102.082 29.9873 106.051 29.9873V29.9963ZM117.187 29.9963C118.399 29.9963 119.144 29.6518 119.668 29.1765L119.063 27.6947C118.786 27.9855 118.247 28.2237 117.657 28.2237C116.748 28.2237 116.305 27.5359 116.305 26.5831V18.6452H119.008V16.8995H116.305V13.4069H114.238V16.8995H112.033V18.6463H114.238V27.0081C114.238 28.9137 115.23 29.9985 117.187 29.9985V29.9963Z" fill="#00D8FF"/>
</svg>
