<svg width="120" height="40" viewBox="0 0 120 40" fill="none" xmlns="http://www.w3.org/2000/svg">
<path d="M22.7009 23.6362C24.9368 23.6362 26.7494 21.896 26.7494 19.7494C26.7494 17.6027 24.9368 15.8625 22.7009 15.8625C20.4649 15.8625 18.6523 17.6027 18.6523 19.7494C18.6523 21.896 20.4649 23.6362 22.7009 23.6362Z" fill="#00D8FF"/>
<path fill-rule="evenodd" clip-rule="evenodd" d="M22.7013 11.8467C28.137 11.8467 33.1866 12.5955 36.994 13.8539C41.5813 15.3702 44.4018 17.6684 44.4018 19.7495C44.4018 21.9181 41.4127 24.3596 36.4864 25.9266C32.7621 27.1113 27.8611 27.7297 22.7013 27.7297C17.411 27.7297 12.4014 27.1492 8.63511 25.9136C3.87005 24.35 1 21.8768 1 19.7495C1 17.6853 3.69299 15.4048 8.21587 13.8909C12.0375 12.6117 17.2118 11.8467 22.7005 11.8467H22.7013Z" stroke="#00D8FF" stroke-width="1.66272"/>
<path fill-rule="evenodd" clip-rule="evenodd" d="M15.5358 15.8207C18.2514 11.3001 21.4495 7.4745 24.4871 4.93664C28.1469 1.8789 31.6297 0.681401 33.5074 1.72092C35.4642 2.80429 36.1739 6.51014 35.1268 11.3898C34.3359 15.0792 32.4448 19.464 29.867 23.7553C27.2241 28.1551 24.1978 32.0315 21.2016 34.5458C17.4103 37.7277 13.7449 38.8791 11.8254 37.8164C9.96282 36.7859 9.25055 33.4063 10.1441 28.8884C10.899 25.071 12.7936 20.3856 15.5349 15.8207L15.5358 15.8207Z" stroke="#00D8FF" stroke-width="1.66272"/>
<path fill-rule="evenodd" clip-rule="evenodd" d="M15.5424 23.7675C12.8192 19.2519 10.9651 14.6803 10.1912 10.8864C9.25957 6.31514 9.91825 2.8201 11.7942 1.77756C13.7491 0.691003 17.4477 1.95142 21.3282 5.25942C24.2622 7.76042 27.2749 11.5225 29.8601 15.8099C32.5107 20.2054 34.4972 24.6586 35.27 28.4064C36.2479 33.1491 35.4564 36.7728 33.5387 37.8386C31.678 38.8728 28.273 37.7778 24.6423 34.7782C21.5746 32.2439 18.2926 28.3279 15.5424 23.7674V23.7675Z" stroke="#00D8FF" stroke-width="1.66272"/>
<path fill-rule="evenodd" clip-rule="evenodd" d="M67.6402 29.6798L62.6779 22.4822C65.1858 22.2697 67.4456 20.5251 67.4456 17.3378C67.4456 14.0947 65.0484 12.019 61.6854 12.019H54.3003V29.6664H56.5881V22.6544H60.2538L64.9389 29.6664L67.6402 29.6798ZM61.4117 20.7365H56.5892V13.9895H61.4117C63.59 13.9895 65.0775 15.3651 65.0775 17.3501C65.0775 19.3352 63.5888 20.7387 61.4117 20.7387V20.7365ZM76.1564 29.9963C78.3347 29.9963 80.125 29.3085 81.4483 28.0392L80.4559 26.7419C79.4075 27.7741 77.8652 28.3557 76.3498 28.3557C73.4842 28.3557 71.7195 26.3449 71.5541 23.9383H82.3289V23.435C82.3289 19.5991 79.9585 16.5819 75.9339 16.5819C72.1307 16.5819 69.3758 19.5723 69.3758 23.2762C69.3758 27.272 72.2145 29.9862 76.1552 29.9862L76.1564 29.9963ZM80.2916 22.4811H71.5552C71.6659 20.524 73.0695 18.2202 75.9094 18.2202C78.9415 18.2202 80.2637 20.5754 80.2916 22.4811ZM96.0567 29.6787V20.8941C96.0567 17.7986 93.7154 16.5807 90.9034 16.5807C88.7251 16.5807 87.0175 17.2685 85.5847 18.6977L86.5492 20.0733C87.7338 18.8565 89.0303 18.3007 90.6285 18.3007C92.5575 18.3007 93.9914 19.2793 93.9914 20.9993V23.3008C92.9163 22.1098 91.4008 21.554 89.5813 21.554C87.3215 21.554 84.9219 22.9038 84.9219 25.7611C84.9219 28.5391 87.3192 29.9952 89.5813 29.9952C91.3728 29.9952 92.8895 29.3868 93.9914 28.2226V29.6764L96.0567 29.6787ZM90.3256 28.567C88.3966 28.567 87.0454 27.404 87.0454 25.7891C87.0454 24.1485 88.3966 22.9843 90.3256 22.9843C91.7864 22.9843 93.1912 23.5133 93.9914 24.5724V26.9801C93.1923 28.0381 91.7864 28.5682 90.3256 28.5682V28.567ZM106.051 29.9963C108.476 29.9963 109.909 29.0435 110.93 27.7741L109.551 26.5574C108.67 27.6947 107.54 28.2237 106.173 28.2237C103.335 28.2237 101.572 26.1067 101.572 23.2762C101.572 20.4457 103.336 18.3555 106.173 18.3555C107.551 18.3555 108.681 18.8588 109.551 20.0218L110.93 18.8051C109.91 17.5347 108.476 16.583 106.051 16.583C102.082 16.583 99.4091 19.494 99.4091 23.2773C99.4091 27.0875 102.082 29.9873 106.051 29.9873V29.9963ZM117.187 29.9963C118.399 29.9963 119.144 29.6518 119.668 29.1765L119.063 27.6947C118.786 27.9855 118.247 28.2237 117.657 28.2237C116.748 28.2237 116.305 27.5359 116.305 26.5831V18.6452H119.008V16.8995H116.305V13.4069H114.238V16.8995H112.033V18.6463H114.238V27.0081C114.238 28.9137 115.23 29.9985 117.187 29.9985V29.9963Z" fill="#00D8FF"/>
</svg>
