<svg width="29" height="40" viewBox="0 0 29 40" fill="none" xmlns="http://www.w3.org/2000/svg">
<path d="M14.0551 39.6949L2.7506 36.5243L0.231445 7.97852H27.9126L25.3908 36.5199L14.0551 39.6949Z" fill="#264DE4"/>
<path d="M23.232 34.7029L25.3871 10.313H14.0723V37.2687L23.232 34.7029Z" fill="#2965F1"/>
<path d="M6.00684 20.8999L6.31743 24.4009H14.0723V20.8999H6.00684Z" fill="#EBEBEB"/>
<path d="M5.38281 13.814L5.69785 17.315H14.0724V13.814H5.38281Z" fill="#EBEBEB"/>
<path d="M14.0718 29.9923L14.0566 29.9964L10.1971 28.9436L9.95038 26.1514H6.47168L6.9572 31.6485L14.0558 33.6394L14.0718 33.6349V29.9923Z" fill="#EBEBEB"/>
<path d="M6.74609 0.221191H10.9433V1.99443H8.50128V3.76767H10.9433V5.54089H6.74609V0.221191Z" fill="white"/>
<path d="M11.7832 0.221191H15.9804V1.76314H13.5384V2.07153H15.9804V5.618H11.7832V3.99897H14.2252V3.69057H11.7832V0.221191Z" fill="white"/>
<path d="M16.8193 0.221191H21.0166V1.76314H18.5745V2.07153H21.0166V5.618H16.8193V3.99897H19.2613V3.69057H16.8193V0.221191Z" fill="white"/>
<path d="M22.1158 20.9002L22.7414 13.814H14.0605V17.315H18.9437L18.6283 20.9002H14.0605V24.4011H18.3278L17.9255 28.9417L14.0605 29.9956V33.638L21.1648 31.6488L21.2169 31.0573L22.0312 21.8403L22.1158 20.9002Z" fill="white"/>
</svg>
