<svg width="92" height="54" viewBox="0 0 92 54" fill="none" xmlns="http://www.w3.org/2000/svg">
<path d="M21.8118 14.377H39.1382V15.6965H23.4V25.6274H38.1997V26.9469H23.4V37.8502H39.3187V39.1697H21.8118V14.377ZM40.6903 14.377H42.5313L50.6891 25.2802L59.0274 14.377L70.3689 0.527344L51.7359 26.4261L61.3376 39.1697H59.4245L50.6891 27.572L41.9176 39.1697H40.0406L49.7145 26.4261L40.6903 14.377ZM62.0235 15.6965V14.377H81.7683V15.6965H72.672V39.1697H71.0837V15.6965H62.0235ZM0.135742 14.377H2.12106L29.4974 53.6288L18.1841 39.1697L1.79619 16.252L1.724 39.1697H0.135742V14.377ZM81.6083 37.452C81.2838 37.452 81.0405 37.2111 81.0405 36.8998C81.0405 36.5884 81.2838 36.3475 81.6083 36.3475C81.9367 36.3475 82.1762 36.5884 82.1762 36.8998C82.1762 37.2111 81.9367 37.452 81.6083 37.452ZM83.169 35.9992H84.0188C84.0304 36.4402 84.3665 36.7367 84.861 36.7367C85.4134 36.7367 85.7263 36.418 85.7263 35.8213V32.041H86.5916V35.825C86.5916 36.8998 85.9426 37.5187 84.8687 37.5187C83.8604 37.5187 83.169 36.9183 83.169 35.9992ZM87.7234 35.951H88.581C88.6544 36.4587 89.1721 36.7812 89.9176 36.7812C90.613 36.7812 91.1229 36.4365 91.1229 35.9621C91.1229 35.5544 90.7984 35.3098 90.0605 35.143L89.342 34.9763C88.3338 34.7502 87.8741 34.2832 87.8741 33.4975C87.8741 32.545 88.6853 31.9112 89.9022 31.9112C91.034 31.9112 91.8607 32.545 91.9109 33.4456H91.0688C90.9877 32.9527 90.5396 32.6451 89.8906 32.6451C89.2068 32.6451 88.751 32.9601 88.751 33.4419C88.751 33.8236 89.0446 34.0423 89.7708 34.2054L90.385 34.3499C91.5285 34.6056 91.9998 35.0504 91.9998 35.8546C91.9998 36.8775 91.1731 37.5187 89.8519 37.5187C88.6158 37.5187 87.7852 36.9072 87.7234 35.951Z" fill="white"/>
</svg>
