<svg width="30" height="40" viewBox="0 0 30 40" fill="none" xmlns="http://www.w3.org/2000/svg">
<g clip-path="url(#clip0_402:15)">
<path d="M29.7201 8.01709H15.0031H0.286133L3.02503 36.6179L15.0031 39.8655L26.9447 36.6179L29.7201 8.01709Z" fill="#E6A329"/>
<path d="M15.0029 10.3569V37.4561L24.6804 34.8021L27.0175 10.3569H15.0029Z" fill="#F1BF22"/>
<path d="M22.7082 13.8491H7.80866L6.78613 24.5701V24.5002H19.4581L19.0199 29.0401L15.0028 30.1575L10.9127 29.0051L10.6571 26.2812H6.93221L7.47998 31.764L15.0028 33.7894L22.5256 31.764L23.5482 21.0081H10.1458L10.3284 17.4111H19.6407L19.7502 19.4715H23.5116L22.7082 13.8491Z" fill="white"/>
<path d="M15.0028 13.8491H7.80866L6.78613 24.5701L6.82266 24.5002H15.0393V21.0081H10.6571L10.8397 17.4111H15.0028V13.8491ZM10.6571 26.2812H6.93221L7.47998 31.764L15.0028 33.7894V30.1575L10.9127 29.0401L10.6571 26.2812Z" fill="#EBEBEB"/>
<path d="M12.1182 3.79164H9.52539V5.60753H12.1182H13.5424H14.0172V0.264648H12.1182V3.79164Z" fill="white"/>
<path d="M20.4809 0.299316H15.916C15.916 0.299316 15.916 1.2422 15.916 2.18509C16.5368 2.77876 16.829 3.05813 17.742 3.89624C17.2307 3.89624 15.916 3.89624 15.916 3.89624V5.60741H20.4809V3.89624L18.6549 2.18509H20.4809V0.299316Z" fill="white"/>
</g>
<defs>
<clipPath id="clip0_402:15">
<rect width="29.8113" height="40" fill="white"/>
</clipPath>
</defs>
</svg>
