<svg width="135" height="40" viewBox="0 0 135 40" fill="none" xmlns="http://www.w3.org/2000/svg">
<g clip-path="url(#clip0_402:22)">
<path fill-rule="evenodd" clip-rule="evenodd" d="M32.4214 23.6526C32.4214 14.6993 25.1635 7.44141 16.2102 7.44141C7.25789 7.44141 -0.000976562 14.6993 -0.000976562 23.6526C-0.000976562 32.6059 7.25789 39.8637 16.2102 39.8637C25.1635 39.8637 32.4214 32.6059 32.4214 23.6526ZM16.2102 15.5912C20.4669 15.5912 23.917 19.185 23.917 23.6164C23.917 28.0489 20.4669 31.6416 16.2102 31.6416C11.9545 31.6416 8.50436 28.0489 8.50436 23.6164C8.50436 19.185 11.9545 15.5912 16.2102 15.5912Z" fill="#ED2590"/>
<path fill-rule="evenodd" clip-rule="evenodd" d="M50.847 7.08789C41.6928 7.92657 37.0274 13.1234 36.8506 22.6783V39.1547H45.5317V21.2611C45.4644 17.8521 47.2944 16.1989 51.0238 16.3003L50.847 7.08789V7.08789Z" fill="#ED2590"/>
<path fill-rule="evenodd" clip-rule="evenodd" d="M55.8066 0.000488281V39.1544H63.9564V27.8156C70.6759 26.9498 73.9232 30.7294 73.7012 39.1544H81.851C82.2809 29.05 78.7373 22.8488 71.9294 21.2608L83.0904 7.97248H72.9921L64.1332 19.3123V0.000488281H55.8066V0.000488281Z" fill="#ED2590"/>
<path fill-rule="evenodd" clip-rule="evenodd" d="M86.9883 8.32721L87.1651 27.9936C88.6395 43.4032 113.266 44.5904 115.335 27.9936L115.513 8.32721L106.831 8.15044L107.008 24.2722C106.639 34.4298 95.4775 34.253 95.3148 24.2722V7.97266L86.9883 8.32721V8.32721Z" fill="#ED2590"/>
<path fill-rule="evenodd" clip-rule="evenodd" d="M119.942 0.35498L120.119 24.6265C119.894 33.3187 126.035 39.991 134.116 39.6856L133.939 31.1823C131.179 30.9001 129.407 29.0098 128.623 25.5124V16.4768H134.116V7.97343H128.447V0.35498H119.942V0.35498Z" fill="#ED2590"/>
</g>
<defs>
<clipPath id="clip0_402:22">
<rect width="134.116" height="40" fill="white"/>
</clipPath>
</defs>
</svg>
