<svg width="69" height="40" viewBox="0 0 69 40" fill="none" xmlns="http://www.w3.org/2000/svg">
<g clip-path="url(#clip0_402:2)">
<path d="M16.1569 10.6496H28.9913V11.627H17.3334V18.9833H28.2961V19.9607H17.3334V28.0372H29.125V29.0146H16.1569V10.6496ZM30.141 10.6496H31.5047L37.5475 18.7261L43.724 10.6496L52.1251 0.390625L38.3229 19.5749L45.4353 29.0146H44.0182L37.5475 20.4237L31.0501 29.0146H29.6597L36.8256 19.5749L30.141 10.6496ZM45.9434 11.627V10.6496H60.5692V11.627H53.8311V29.0146H52.6546V11.627H45.9434ZM0.100586 10.6496H1.57119L21.85 39.725L13.4697 29.0146L1.33055 12.0385L1.27707 29.0146H0.100586V10.6496ZM60.4506 27.7422C60.2103 27.7422 60.03 27.5638 60.03 27.3332C60.03 27.1025 60.2103 26.9241 60.4506 26.9241C60.6939 26.9241 60.8713 27.1025 60.8713 27.3332C60.8713 27.5638 60.6939 27.7422 60.4506 27.7422ZM61.6067 26.6661H62.2362C62.2448 26.9927 62.4937 27.2124 62.86 27.2124C63.2692 27.2124 63.501 26.9763 63.501 26.5343V23.7341H64.142V26.537C64.142 27.3332 63.6612 27.7916 62.8657 27.7916C62.1189 27.7916 61.6067 27.3469 61.6067 26.6661ZM64.9803 26.6304H65.6156C65.67 27.0064 66.0534 27.2453 66.6057 27.2453C67.1208 27.2453 67.4985 26.99 67.4985 26.6386C67.4985 26.3366 67.2581 26.1554 66.7115 26.0319L66.1793 25.9084C65.4325 25.7409 65.092 25.395 65.092 24.813C65.092 24.1074 65.6929 23.6379 66.5943 23.6379C67.4326 23.6379 68.045 24.1074 68.0822 24.7745H67.4584C67.3983 24.4094 67.0664 24.1816 66.5857 24.1816C66.0792 24.1816 65.7415 24.4149 65.7415 24.7718C65.7415 25.0545 65.959 25.2165 66.4969 25.3373L66.9519 25.4444C67.7989 25.6338 68.148 25.9633 68.148 26.559C68.148 27.3167 67.5357 27.7916 66.557 27.7916C65.6414 27.7916 65.0261 27.3387 64.9803 26.6304Z" fill="white"/>
</g>
<defs>
<clipPath id="clip0_402:2">
<rect width="68.1481" height="40" fill="white"/>
</clipPath>
</defs>
</svg>
