<svg width="76" height="108" viewBox="0 0 76 108" fill="none" xmlns="http://www.w3.org/2000/svg">
<g clip-path="url(#clip0)">
<path d="M37.9478 107.177L7.42574 98.6164L0.624023 21.5427H75.3631L68.5542 98.6044L37.9478 107.177Z" fill="#264DE4"/>
<path d="M62.7251 93.6975L68.5438 27.8447H37.9937V100.625L62.7251 93.6975Z" fill="#2965F1"/>
<path d="M16.2168 56.4302L17.0554 65.8829H37.9936V56.4302H16.2168Z" fill="#EBEBEB"/>
<path d="M14.5317 37.2976L15.3823 46.7505H37.9936V37.2976H14.5317Z" fill="#EBEBEB"/>
<path d="M37.9938 80.98L37.9528 80.9911L27.5323 78.1484L26.8661 70.6094H17.4736L18.7845 85.4516L37.9507 90.827L37.9938 90.8149V80.98Z" fill="#EBEBEB"/>
<path d="M18.2134 0.597412H29.5458V5.38516H22.9524V10.1729H29.5458V14.9606H18.2134V0.597412Z" fill="white"/>
<path d="M31.8125 0.597412H43.1449V4.76067H36.5515V5.59332H43.1449V15.1688H31.8125V10.7974H38.4059V9.96474H31.8125V0.597412Z" fill="white"/>
<path d="M45.4111 0.597412H56.7436V4.76067H50.1501V5.59332H56.7436V15.1688H45.4111V10.7974H52.0045V9.96474H45.4111V0.597412Z" fill="white"/>
<path d="M59.7106 56.4303L61.3997 37.2976H37.9614V46.7505H51.1458L50.2944 56.4303H37.9614V65.8829H49.483L48.3969 78.1425L37.9614 80.9881V90.8225L57.1429 85.4517L57.2836 83.8547L59.4823 58.9686L59.7106 56.4303Z" fill="white"/>
</g>
<defs>
<clipPath id="clip0">
<rect width="75" height="106.849" fill="white" transform="translate(0.493652 0.597412)"/>
</clipPath>
</defs>
</svg>
