<svg width="79" height="106" viewBox="0 0 79 106" fill="none" xmlns="http://www.w3.org/2000/svg">
<path d="M78.7578 21.2456H39.7578H0.757812L8.01588 97.0377L39.7578 105.644L71.403 97.0377L78.7578 21.2456Z" fill="#E6A329"/>
<path d="M39.7578 27.4456V99.2585L65.403 92.2253L71.5965 27.4456H39.7578Z" fill="#F1BF22"/>
<path d="M60.177 36.7002H20.6931L17.9834 65.1107V64.9256H51.5641L50.4028 76.9562L39.7576 79.9175L28.9189 76.8636L28.2415 69.6453H18.3705L19.8221 84.1745L39.7576 89.5419L59.6931 84.1745L62.4028 55.6714H26.8866L27.3705 46.1395H52.048L52.3383 51.5995H62.306L60.177 36.7002Z" fill="white"/>
<path d="M39.7576 36.7002H20.6931L17.9834 65.1107L18.0802 64.9256H39.8544V55.6714H28.2415L28.7254 46.1395H39.7576V36.7002ZM28.2415 69.6453H18.3705L19.8221 84.1745L39.7576 89.5419V79.9175L28.9189 76.9562L28.2415 69.6453Z" fill="#EBEBEB"/>
<path d="M32.1122 10.0477H25.2412V14.8598H32.1122H35.8863H37.1444V0.701172H32.1122V10.0477Z" fill="white"/>
<path d="M54.2741 0.793457H42.1772C42.1772 0.793457 42.1772 3.2921 42.1772 5.79075C43.8224 7.36397 44.5966 8.10431 47.016 10.3253C45.6611 10.3253 42.1772 10.3253 42.1772 10.3253V14.8599H54.2741V10.3253L49.4353 5.79075H54.2741V0.793457Z" fill="white"/>
</svg>
